<?xml version="1.0" ?><!DOCTYPE svg  PUBLIC '-//W3C//DTD SVG 1.1//EN'  'http://www.w3.org/Graphics/SVG/1.1/DTD/svg11.dtd'><svg height="512px" style="enable-background:new 0 0 512 512;" version="1.1" viewBox="0 0 512 512" width="512px" xml:space="preserve" xmlns="http://www.w3.org/2000/svg" xmlns:xlink="http://www.w3.org/1999/xlink"><g id="comp_x5F_45-bitcoin"><g><path d="    M362.199,239.996c24.913-12.74,40.767-35.39,37.088-73.043c-4.814-51.527-47.131-68.796-103.188-73.608V36H252.5v55.363    c-11.325,0-22.932,0.283-34.539,0.565V36h-43.6v57.344c-16.029,0.484-34.698,0.249-87.479,0v46.43    c34.423-0.61,52.483-2.822,56.623,19.251V354.37c-2.629,17.515-16.643,14.991-47.846,14.438l-8.775,51.809    c79.495,0,87.479,0.284,87.479,0.284V476h43.601v-54.251c11.888,0.285,23.498,0.285,34.539,0.285V476h43.599v-55.1    c73.043-3.964,121.871-22.366,128.384-91.16C429.579,274.535,403.531,249.903,362.199,239.996z M218.811,142.889    c24.631,0,101.639-7.643,101.639,43.599c0,48.979-77.007,43.315-101.639,43.315V142.889z M218.811,369.093v-95.691    c29.445,0,119.608-8.209,119.608,47.847C338.418,375.321,248.255,369.093,218.811,369.093L218.811,369.093z" style="fill:none;stroke:#000000;stroke-width:20;stroke-linecap:round;stroke-linejoin:round;stroke-miterlimit:10;"/></g></g><g id="Layer_1"/></svg>