<?xml version="1.0" ?><!DOCTYPE svg  PUBLIC '-//W3C//DTD SVG 1.1//EN'  'http://www.w3.org/Graphics/SVG/1.1/DTD/svg11.dtd'><svg height="512px" style="enable-background:new 0 0 512 512;" version="1.1" viewBox="0 0 512 512" width="512px" xml:space="preserve" xmlns="http://www.w3.org/2000/svg" xmlns:xlink="http://www.w3.org/1999/xlink"><g id="comp_x5F_129-fiverr"><g><g id="_x31_13-fiverr_3_"><g><g><g><path d="        M407.363,393.065V173.76H188.654v-13.706c0-22.674,18.398-41.119,41.004-41.119h41.008V36.696h-41.008        c-67.826,0-123.019,55.345-123.019,123.357v13.706H61v82.239h45.637v137.066H61v82.238h180v-82.238h-52.346V255.999h137.454        v137.066H281v82.238h170v-82.238H407.363L407.363,393.065z" style="fill:none;stroke:#000000;stroke-width:20;stroke-linecap:round;stroke-linejoin:round;stroke-miterlimit:10;"/><path d="        M407.363,77.815c0,22.712-18.365,41.119-41.012,41.119c-22.645,0-41.005-18.407-41.005-41.119        c0-22.713,18.36-41.118,41.005-41.118C388.998,36.696,407.363,55.103,407.363,77.815L407.363,77.815z" style="fill:none;stroke:#000000;stroke-width:20;stroke-linecap:round;stroke-linejoin:round;stroke-miterlimit:10;"/></g></g></g></g></g></g><g id="Layer_1"/></svg>