<?xml version="1.0" ?><!DOCTYPE svg  PUBLIC '-//W3C//DTD SVG 1.1//EN'  'http://www.w3.org/Graphics/SVG/1.1/DTD/svg11.dtd'><svg height="512px" style="enable-background:new 0 0 512 512;" version="1.1" viewBox="0 0 512 512" width="512px" xml:space="preserve" xmlns="http://www.w3.org/2000/svg" xmlns:xlink="http://www.w3.org/1999/xlink"><g id="comp_x5F_143-github-alt"><g><path d="    M194.346,302.92c0,14.335-7.475,37.792-25.171,37.792c-17.694,0-25.169-23.457-25.169-37.792s7.475-37.79,25.169-37.79    C186.871,265.13,194.346,288.585,194.346,302.92z" style="fill:none;stroke:#000000;stroke-width:20;stroke-linecap:round;stroke-linejoin:round;stroke-miterlimit:10;"/><path d="    M485.999,277.271c0,30.571-3.067,62.962-16.77,91.042c-36.321,73.405-136.18,71.681-207.672,71.681    c-72.641,0-178.44,2.589-216.198-71.681c-13.992-27.794-19.359-60.471-19.359-91.042c0-40.155,13.321-78.105,39.771-108.867    c-4.982-15.143-7.379-31.05-7.379-46.767c0-20.604,4.697-30.954,13.991-49.641c43.413,0,71.205,8.624,104.267,34.5    c27.792-6.614,56.351-9.584,85.002-9.584c25.876,0,51.942,2.779,77.052,8.818c32.582-25.588,60.373-33.733,103.306-33.733    c9.394,18.687,13.992,29.037,13.992,49.641c0,15.716-2.491,31.338-7.379,46.191C474.979,198.878,485.999,237.116,485.999,277.271    L485.999,277.271z" style="fill:none;stroke:#000000;stroke-width:20;stroke-linecap:round;stroke-linejoin:round;stroke-miterlimit:10;"/><path d="    M424.378,302.919c0-42.069-25.586-79.157-70.437-79.157c-18.112,0-35.458,3.258-53.665,5.75    c-14.28,2.204-28.562,3.066-43.223,3.066c-14.567,0-28.844-0.862-43.219-3.066c-17.921-2.492-35.458-5.75-53.667-5.75    c-44.849,0-70.438,37.087-70.438,79.157c0,84.143,77.049,97.081,144.133,97.081h46.191    C347.425,400,424.378,387.157,424.378,302.919z" style="fill:none;stroke:#000000;stroke-width:20;stroke-linecap:round;stroke-linejoin:round;stroke-miterlimit:10;"/><path d="    M344.829,265.13c-17.695,0-25.17,23.455-25.17,37.79s7.475,37.792,25.17,37.792S370,317.255,370,302.92    S362.524,265.13,344.829,265.13z" style="fill:none;stroke:#000000;stroke-width:20;stroke-linecap:round;stroke-linejoin:round;stroke-miterlimit:10;"/></g></g><g id="Layer_1"/></svg>