<?xml version="1.0" ?><!DOCTYPE svg  PUBLIC '-//W3C//DTD SVG 1.1//EN'  'http://www.w3.org/Graphics/SVG/1.1/DTD/svg11.dtd'><svg height="512px" style="enable-background:new 0 0 512 512;" version="1.1" viewBox="0 0 512 512" width="512px" xml:space="preserve" xmlns="http://www.w3.org/2000/svg" xmlns:xlink="http://www.w3.org/1999/xlink"><g id="comp_x5F_187-js"><g><path d="    M40.001,40v432h431.998V40H40.001z M261.597,376.922c0,42.041-24.687,61.232-60.655,61.232c-32.495,0-51.298-16.779-60.942-37.123    l33.074-19.963c6.364,11.283,12.15,20.828,26.132,20.828c13.307,0,21.794-5.207,21.794-25.553v-137.99h40.596V376.922    L261.597,376.922z M371.136,438.154c-37.704,0-62.1-17.938-73.96-41.465l33.074-19.094c8.679,14.176,20.057,24.686,40.018,24.686    c16.779,0,27.577-8.389,27.577-20.055c0-13.889-10.991-18.803-29.601-27l-10.125-4.34c-29.314-12.439-48.696-28.158-48.696-61.232    c0-30.471,23.238-53.615,59.397-53.615c25.843,0,44.358,8.969,57.665,32.498l-31.628,20.248    c-6.942-12.439-14.464-17.355-26.132-17.355c-11.861,0-19.383,7.521-19.383,17.355c0,12.152,7.521,17.07,24.976,24.686    l10.124,4.34c34.521,14.754,53.903,29.895,53.903,63.836C438.346,418.096,409.609,438.154,371.136,438.154L371.136,438.154z" style="fill:none;stroke:#000000;stroke-width:20;stroke-linecap:round;stroke-linejoin:round;stroke-miterlimit:10;"/></g></g><g id="Layer_1"/></svg>