<?xml version="1.0" ?><!DOCTYPE svg  PUBLIC '-//W3C//DTD SVG 1.1//EN'  'http://www.w3.org/Graphics/SVG/1.1/DTD/svg11.dtd'><svg height="512px" style="enable-background:new 0 0 512 512;" version="1.1" viewBox="0 0 512 512" width="512px" xml:space="preserve" xmlns="http://www.w3.org/2000/svg" xmlns:xlink="http://www.w3.org/1999/xlink"><g id="comp_x5F_375-whatsapp"><g><path d="    M411.5,98.52C369.974,56.895,314.673,34,255.901,34C134.594,34,35.883,132.712,35.883,254.018    c0,38.75,10.109,76.61,29.336,110.009L34.001,478l116.648-30.624c32.111,17.541,68.284,26.76,105.152,26.76h0.1    c121.209,0,222.098-98.712,222.098-220.018C477.999,195.347,453.026,140.145,411.5,98.52z M255.901,437.068    c-32.903,0-65.114-8.819-93.161-25.47l-6.64-3.965L86.923,425.77l18.435-67.491l-4.36-6.937    c-18.334-29.139-27.949-62.735-27.949-97.324c0-100.792,82.062-182.852,182.953-182.852c48.859,0,94.744,19.028,129.235,53.616    c34.488,34.588,55.698,80.476,55.599,129.336C440.835,355.011,356.691,437.068,255.901,437.068z M356.196,300.103    c-5.451-2.772-32.505-16.056-37.561-17.838c-5.055-1.884-8.721-2.774-12.388,2.775c-3.666,5.55-14.172,17.838-17.444,21.605    c-3.171,3.667-6.441,4.161-11.893,1.387c-32.309-16.153-53.518-28.839-74.825-65.412c-5.649-9.711,5.649-9.018,16.154-30.028    c1.784-3.668,0.893-6.839-0.496-9.613c-1.387-2.775-12.388-29.832-16.946-40.833c-4.46-10.703-9.019-9.217-12.389-9.415    c-3.171-0.198-6.839-0.198-10.505-0.198c-3.667,0-9.612,1.388-14.668,6.838c-5.055,5.551-19.227,18.831-19.227,45.888    s19.721,53.222,22.397,56.888c2.774,3.666,38.752,59.167,93.953,83.052c34.886,15.064,48.564,16.352,66.007,13.775    c10.604-1.586,32.508-13.28,37.065-26.165c4.559-12.882,4.559-23.882,3.171-26.162    C365.316,304.166,361.647,302.779,356.196,300.103z" style="fill:none;stroke:#000000;stroke-width:20;stroke-linecap:round;stroke-linejoin:round;stroke-miterlimit:10;"/></g></g><g id="Layer_1"/></svg>