<svg width="512" height="512" xmlns="http://www.w3.org/2000/svg">

 <g>
  <title>background</title>
  <rect fill="none" id="canvas_background" height="402" width="582" y="-1" x="-1"/>
 </g>
 <g>
  <title>Layer 1</title>
  <path id="svg_2" fill="none" stroke="#ffffff" stroke-width="20" stroke-linecap="round" stroke-linejoin="round" stroke-miterlimit="10" d="m411.5,99.602914c-41.526,-41.625 -96.827,-64.52 -155.599,-64.52c-121.307,0 -220.018,98.712 -220.018,220.018c0,38.75 10.109,76.61 29.336,110.009l-31.218,113.973l116.648,-30.624c32.111,17.541 68.284,26.76 105.152,26.76l0.1,0c121.209,0 222.098,-98.712 222.098,-220.018c0,-58.771 -24.973,-113.973 -66.499,-155.598zm-155.599,338.548c-32.903,0 -65.114,-8.819 -93.161,-25.47l-6.64,-3.965l-69.177,18.137l18.435,-67.491l-4.36,-6.937c-18.334,-29.139 -27.949,-62.735 -27.949,-97.324c0,-100.792 82.062,-182.852 182.953,-182.852c48.859,0 94.744,19.028 129.235,53.616c34.488,34.588 55.698,80.476 55.599,129.336c-0.001,100.893 -84.145,182.95 -184.935,182.95zm100.295,-136.965c-5.451,-2.772 -32.505,-16.056 -37.561,-17.838c-5.055,-1.884 -8.721,-2.774 -12.388,2.775c-3.666,5.55 -14.172,17.838 -17.444,21.605c-3.171,3.667 -6.441,4.161 -11.893,1.387c-32.309,-16.153 -53.518,-28.839 -74.825,-65.412c-5.649,-9.711 5.649,-9.018 16.154,-30.028c1.784,-3.668 0.893,-6.839 -0.496,-9.613c-1.387,-2.775 -12.388,-29.832 -16.946,-40.833c-4.46,-10.703 -9.019,-9.217 -12.389,-9.415c-3.171,-0.198 -6.839,-0.198 -10.505,-0.198c-3.667,0 -9.612,1.388 -14.668,6.838c-5.055,5.551 -19.227,18.831 -19.227,45.888s19.721,53.222 22.397,56.888c2.774,3.666 38.752,59.167 93.953,83.052c34.886,15.064 48.564,16.352 66.007,13.775c10.604,-1.586 32.508,-13.28 37.065,-26.165c4.559,-12.882 4.559,-23.882 3.171,-26.162c-1.285,-2.481 -4.954,-3.868 -10.405,-6.544z"/>
 </g>
</svg>