<?xml version="1.0" ?><!DOCTYPE svg  PUBLIC '-//W3C//DTD SVG 1.1//EN'  'http://www.w3.org/Graphics/SVG/1.1/DTD/svg11.dtd'><svg height="512px" style="enable-background:new 0 0 512 512;" version="1.1" viewBox="0 0 512 512" width="512px" xml:space="preserve" xmlns="http://www.w3.org/2000/svg" xmlns:xlink="http://www.w3.org/1999/xlink"><g id="comp_x5F_387-xbox"><g><path d="    M357.007,311.174c39.293,48.161,57.385,87.629,48.25,105.279c-7.007,13.393-50.291,39.559-82.129,49.58    c-26.256,8.247-60.668,11.795-89.05,9.047c-33.881-3.284-68.205-15.434-97.651-34.591c-24.747-16.144-30.333-22.795-30.333-36.009    c0-26.521,29.18-72.996,79.115-126.035c28.381-30.066,67.85-65.366,72.197-64.391    C265.742,215.916,332.173,280.662,357.007,311.174L357.007,311.174z M196.206,156.492c-26.342-23.858-51.53-47.805-76.631-56.231    c-13.481-4.523-14.458-4.257-25.455,7.185c-25.899,26.962-47.452,70.689-53.481,108.56c-4.792,30.334-5.412,38.85-3.726,53.661    c4.966,44.788,15.343,75.743,35.921,107.229c8.425,12.949,10.732,15.344,8.248,8.78c-3.725-9.756-0.267-33.259,8.427-56.764    C102.191,294.322,137.313,228.778,196.206,156.492z M472.575,212.813c-14.989-70.954-59.867-115.567-66.167-115.567    c-6.475,0-21.461,5.765-31.929,12.328c-20.665,12.86-36.364,27.85-57.029,46.83c37.606,47.273,90.645,123.64,109.004,179.427    c6.031,18.359,8.604,36.452,6.563,46.386c-1.506,7.54-1.506,7.54,1.243,4.081c5.411-6.829,17.649-27.762,22.527-38.582    c6.564-14.368,13.305-35.653,16.497-52.063C477.098,275.697,476.744,232.857,472.575,212.813z M154.254,67.09    c42.307-2.219,97.296,30.599,101.376,31.396c0.622,0.09,9.226-3.725,19.159-8.603c56.674-27.584,83.372-22.883,95.257-22.351    C313.371,32.677,234.61,23.186,162.591,57.155C141.837,67.001,141.304,67.71,154.254,67.09L154.254,67.09z" style="fill:none;stroke:#000000;stroke-width:20;stroke-linecap:round;stroke-linejoin:round;stroke-miterlimit:10;"/></g></g><g id="Layer_1"/></svg>