<?xml version="1.0" encoding="UTF-8" standalone="no"?>
<svg
   xmlns:dc="http://purl.org/dc/elements/1.1/"
   xmlns:cc="http://creativecommons.org/ns#"
   xmlns:rdf="http://www.w3.org/1999/02/22-rdf-syntax-ns#"
   xmlns:svg="http://www.w3.org/2000/svg"
   xmlns="http://www.w3.org/2000/svg"
   xmlns:sodipodi="http://sodipodi.sourceforge.net/DTD/sodipodi-0.dtd"
   xmlns:inkscape="http://www.inkscape.org/namespaces/inkscape"
   width="161.00002"
   height="161.00002"
   viewBox="0 0 42.59792 42.597922"
   version="1.1"
   id="svg8"
   inkscape:export-filename="/home/njrzr/dev/zero-plus/images/path12-3.png"
   inkscape:export-xdpi="120"
   inkscape:export-ydpi="120"
   inkscape:version="1.0.1 (3bc2e813f5, 2020-09-07)"
   sodipodi:docname="logo.svg">
  <defs
     id="defs2">
    <inkscape:path-effect
       effect="powerclip"
       id="path-effect2431"
       is_visible="true"
       lpeversion="1"
       inverse="true"
       flatten="false"
       hide_clip="false"
       message="Use fill-rule evenodd on &lt;b&gt;fill and stroke&lt;/b&gt; dialog if no flatten result after convert clip to paths." />
    <clipPath
       clipPathUnits="userSpaceOnUse"
       id="clipPath2423">
      <g
         id="g2429"
         style="display:none">
        <path
           style="fill:#ffffff;fill-opacity:1;stroke:#000000;stroke-width:0.264583px;stroke-linecap:butt;stroke-linejoin:miter;stroke-opacity:1"
           d="m 25.135417,7.9375 h 2.645833 c 1.322916,-8e-7 1.322917,4e-7 1.322917,1.3229167 V 22.489583 l -5.291666,5.291667 -1e-6,-18.5208333 c 0,-1.3229163 -1e-6,-1.3229175 1.322917,-1.3229167 z"
           id="path2425"
           sodipodi:nodetypes="ccccccc" />
        <path
           style="fill:#ffffff;fill-opacity:1;stroke:#000000;stroke-width:0.264583px;stroke-linecap:butt;stroke-linejoin:miter;stroke-opacity:1"
           d="M 23.8125,30.427084 V 43.65625 c 0,1.322916 0.165401,1.322917 1.322917,1.322917 h 2.645833 c 1.415566,0 1.322917,-10e-7 1.322917,-1.322917 l -1e-6,-18.520833 z"
           id="path2427"
           sodipodi:nodetypes="ccccccc" />
      </g>
      <path
         id="lpe_path-effect2431"
         class="powerclip"
         d="M 0.15937349,0.15937349 H 52.757293 V 52.757293 H 0.15937349 Z M 25.135417,7.9375 c -1.322918,-8e-7 -1.322917,4e-7 -1.322917,1.3229167 l 1e-6,18.5208333 5.291666,-5.291667 V 9.2604167 c 0,-1.3229163 -1e-6,-1.3229175 -1.322917,-1.3229167 z M 23.8125,30.427084 V 43.65625 c 0,1.322916 0.165401,1.322917 1.322917,1.322917 h 2.645833 c 1.415566,0 1.322917,-10e-7 1.322917,-1.322917 l -1e-6,-18.520833 z" />
    </clipPath>
  </defs>
  <sodipodi:namedview
     id="base"
     pagecolor="#ffffff"
     bordercolor="#666666"
     borderopacity="1.0"
     inkscape:pageopacity="0.0"
     inkscape:pageshadow="2"
     inkscape:zoom="2.05"
     inkscape:cx="77.681771"
     inkscape:cy="51.894377"
     inkscape:document-units="px"
     inkscape:current-layer="layer1"
     inkscape:document-rotation="0"
     showgrid="true"
     units="px"
     inkscape:window-width="1366"
     inkscape:window-height="704"
     inkscape:window-x="0"
     inkscape:window-y="27"
     inkscape:window-maximized="1"
     showguides="true"
     inkscape:lockguides="false">
    <inkscape:grid
       type="xygrid"
       id="grid10"
       originx="-5.1593734"
       originy="-5.1593736" />
  </sodipodi:namedview>
  <metadata
     id="metadata5">
    <rdf:RDF>
      <cc:Work
         rdf:about="">
        <dc:format>image/svg+xml</dc:format>
        <dc:type
           rdf:resource="http://purl.org/dc/dcmitype/StillImage" />
        <dc:title />
      </cc:Work>
    </rdf:RDF>
  </metadata>
  <g
     inkscape:label="Layer 1"
     inkscape:groupmode="layer"
     id="layer1"
     transform="translate(-5.1593735,-5.1593735)">
    <path
       style="opacity:1;mix-blend-mode:normal;fill:#4169e1;fill-opacity:1;stroke:none;stroke-width:0.264583px;stroke-linecap:butt;stroke-linejoin:miter;stroke-opacity:0"
       d="m 22.489583,5.2916667 c -1.322917,0 -1.322916,0 -1.322916,1.3229167 V 21.166667 H 6.6145834 c -1.3229167,0 -1.3229167,-1e-6 -1.3229167,1.322916 v 7.937501 c 0,1.322917 0,1.322916 1.3229167,1.322916 H 21.166667 v 14.552084 c 0,1.322916 -1e-6,1.322916 1.322916,1.322916 h 7.937501 c 1.322917,0 1.322916,0 1.322916,-1.322916 V 31.75 h 14.552084 c 1.322916,0 1.322916,1e-6 1.322916,-1.322916 v -7.937501 c 0,-1.322917 0,-1.322916 -1.322916,-1.322916 H 31.75 V 6.6145834 c 0,-1.3229167 1e-6,-1.3229167 -1.322916,-1.3229167 z"
       id="path12"
       sodipodi:nodetypes="ccccccccccccccccccccc"
       clip-path="url(#clipPath2423)"
       inkscape:path-effect="#path-effect2431"
       inkscape:original-d="m 22.489583,5.2916667 c -1.322917,0 -1.322916,0 -1.322916,1.3229167 V 21.166667 H 6.6145834 c -1.3229167,0 -1.3229167,-1e-6 -1.3229167,1.322916 v 7.937501 c 0,1.322917 0,1.322916 1.3229167,1.322916 H 21.166667 v 14.552084 c 0,1.322916 -1e-6,1.322916 1.322916,1.322916 h 7.937501 c 1.322917,0 1.322916,0 1.322916,-1.322916 V 31.75 h 14.552084 c 1.322916,0 1.322916,1e-6 1.322916,-1.322916 v -7.937501 c 0,-1.322917 0,-1.322916 -1.322916,-1.322916 H 31.75 V 6.6145834 c 0,-1.3229167 1e-6,-1.3229167 -1.322916,-1.3229167 z" />
  </g>
</svg>
